<svg xmlns="http://www.w3.org/2000/svg" viewBox="0 0 512 512">
  <!-- Background circle for maskable icon -->
  <circle cx="256" cy="256" r="256" fill="#1976d2"/>
  
  <!-- Trophy icon centered -->
  <g transform="translate(256, 256) scale(8, 8)">
    <path d="M18,2A2,2 0 0,1 20,4V6H23A1,1 0 0,1 24,7V9A1,1 0 0,1 23,10H20V11A2,2 0 0,1 18,13H6A2,2 0 0,1 4,11V10H1A1,1 0 0,1 0,9V7A1,1 0 0,1 1,6H4V4A2,2 0 0,1 6,2H18M6,4V10H18V4H6M2,7V9H4V7H2M20,7V9H22V7H20M7,14H17V16H19V18H5V16H7V14Z" fill="white"/>
  </g>
</svg>
